<svg id="instagram-black" xmlns="http://www.w3.org/2000/svg" width="40" height="40" viewBox="0 0 40 40">
  <path id="Path_11" data-name="Path 11" d="M214.273,210.637A3.637,3.637,0,1,1,210.637,207,3.637,3.637,0,0,1,214.273,210.637Zm0,0" transform="translate(-190.637 -190.637)"/>
  <path id="Path_12" data-name="Path 12" d="M152.934,138a3.613,3.613,0,0,0-2.071-2.071,6.036,6.036,0,0,0-2.026-.375c-1.151-.052-1.5-.064-4.409-.064s-3.258.011-4.409.063a6.04,6.04,0,0,0-2.026.376A3.614,3.614,0,0,0,135.924,138a6.039,6.039,0,0,0-.375,2.026c-.052,1.15-.064,1.5-.064,4.409s.011,3.258.064,4.409a6.036,6.036,0,0,0,.375,2.026,3.613,3.613,0,0,0,2.071,2.071,6.029,6.029,0,0,0,2.026.376c1.15.052,1.5.063,4.408.063s3.259-.011,4.409-.063a6.029,6.029,0,0,0,2.026-.376,3.613,3.613,0,0,0,2.071-2.071,6.042,6.042,0,0,0,.376-2.026c.052-1.151.063-1.5.063-4.409s-.011-3.258-.063-4.409A6.029,6.029,0,0,0,152.934,138Zm-8.505,12.037a5.6,5.6,0,1,1,5.6-5.6A5.6,5.6,0,0,1,144.429,150.035Zm5.824-10.117a1.309,1.309,0,1,1,1.309-1.309A1.309,1.309,0,0,1,150.253,139.918Zm0,0" transform="translate(-124.429 -124.433)"/>
  <path id="Path_13" data-name="Path 13" d="M20,0A20,20,0,1,0,40,20,20,20,0,0,0,20,0ZM31.415,24.735a8.426,8.426,0,0,1-.534,2.788,5.872,5.872,0,0,1-3.359,3.359,8.432,8.432,0,0,1-2.787.534c-1.225.056-1.616.069-4.735.069s-3.51-.013-4.735-.069a8.432,8.432,0,0,1-2.787-.534,5.872,5.872,0,0,1-3.359-3.359,8.424,8.424,0,0,1-.534-2.787c-.056-1.225-.07-1.616-.07-4.735s.013-3.51.069-4.735a8.427,8.427,0,0,1,.533-2.788,5.876,5.876,0,0,1,3.359-3.359,8.434,8.434,0,0,1,2.788-.534c1.225-.056,1.616-.069,4.735-.069s3.51.013,4.735.07a8.435,8.435,0,0,1,2.788.533,5.874,5.874,0,0,1,3.359,3.359,8.425,8.425,0,0,1,.534,2.788c.056,1.225.069,1.616.069,4.735S31.471,23.51,31.415,24.735Zm0,0"/>
</svg>