<svg xmlns="http://www.w3.org/2000/svg" width="40" height="40" viewBox="0 0 40 40">
  <g id="Group" transform="translate(0 0.001)">
    <path id="Path_2" data-name="Path 2" d="M20,40A20,20,0,1,0,0,20,20,20,0,0,0,20,40Z"/>
    <path id="Path_3" data-name="Path 3" d="M31.95,21.609v8.246H27.169V22.162c0-1.932-.69-3.251-2.421-3.251A2.615,2.615,0,0,0,22.3,20.659a3.271,3.271,0,0,0-.158,1.165v8.03H17.357s.064-13.029,0-14.378h4.781v2.037c-.01.016-.023.032-.032.047h.032v-.047a4.747,4.747,0,0,1,4.309-2.375C29.592,15.139,31.95,17.194,31.95,21.609ZM12.356,8.545a2.491,2.491,0,1,0-.063,4.969h.031a2.492,2.492,0,1,0,.032-4.969ZM9.934,29.854h4.779V15.476H9.934Z" fill="#f8f8f8"/>
  </g>
</svg>