<svg xmlns="http://www.w3.org/2000/svg" width="40" height="40" viewBox="0 0 40 40">
  <path id="pinterest-brands" d="M40,28A20,20,0,0,1,14.081,47.1a22.482,22.482,0,0,0,2.484-5.242c.242-.935,1.242-4.758,1.242-4.758a5.356,5.356,0,0,0,4.581,2.3c6.032,0,10.379-5.548,10.379-12.444,0-6.6-5.4-11.548-12.331-11.548-8.629,0-13.218,5.79-13.218,12.1,0,2.935,1.565,6.589,4.056,7.75.379.177.581.1.669-.266.065-.274.4-1.637.556-2.266a.6.6,0,0,0-.137-.573A7.876,7.876,0,0,1,10.887,27.6a8.655,8.655,0,0,1,9.032-8.677c4.911,0,8.355,3.347,8.355,8.137,0,5.411-2.734,9.161-6.29,9.161a2.9,2.9,0,0,1-2.96-3.613c.565-2.379,1.653-4.944,1.653-6.661a2.512,2.512,0,0,0-2.532-2.815c-2.008,0-3.621,2.073-3.621,4.855a7.206,7.206,0,0,0,.6,2.968s-1.976,8.371-2.339,9.935a19.359,19.359,0,0,0-.073,5.742A20,20,0,1,1,40,28Z" transform="translate(0 -8)" fill="#ff4081"/>
</svg>