<svg width="256" height="40" viewBox="0 0 256 40" fill="none" xmlns="http://www.w3.org/2000/svg">
<path d="M28.8702 0.252222C23.7766 -0.724435 18.4945 1.21865 14.6641 4.63951C12.7744 6.32693 11.45 8.50523 9.57046 10.2233C7.69092 11.9414 5.38351 12.9743 3.43266 14.5697C-4.48792 21.0586 2.57693 32.7222 11.6792 37.5595C23.4608 43.8388 36.8366 37.3243 41.9608 25.7374C46.489 15.4901 40.3563 2.44075 28.8702 0.252222ZM35.6039 26.1157C33.7546 30.6263 30.1334 34.171 25.595 35.913C21.6453 37.4128 17.2503 37.1828 13.4773 35.2789C8.81661 32.9626 5.1492 28.4884 4.55325 24.3772C4.14958 21.9489 5.0172 19.4826 6.85047 17.8474C7.77823 16.8912 8.80245 16.0344 9.90664 15.2907C10.4822 14.8714 11.0833 14.4419 11.6385 13.9868C12.4025 13.2863 13.7116 12.1306 14.8729 11.1131L16.6863 9.51257C19.5845 6.95588 23.308 5.84627 26.7105 6.55192C30.113 7.25757 32.9247 9.53302 34.789 13.1022C36.9487 17.2389 37.2696 22.3472 35.6039 26.1157Z" fill="url(#paint0_linear)"/>
<path d="M24.1943 14.6568H24.1434C22.6199 14.3181 21.0272 14.7369 19.8647 15.7818C19.0461 16.3953 18.196 16.9654 17.3179 17.4897C16.3298 18.1186 15.0971 18.9061 14.8271 19.1515L14.7355 19.2231C13.569 20.0106 12.2905 20.9821 11.608 22.24L11.5265 22.3576C10.7205 23.3362 10.4549 24.6543 10.8185 25.8705C11.3788 28.0693 13.5079 30.3141 15.9936 31.3265C18.0693 32.2342 20.4275 32.2342 22.5032 31.3265C24.8812 30.2744 26.7232 28.2865 27.5968 25.8296V25.7785C28.4984 23.7331 28.1062 19.6424 26.7462 17.0857C26.2623 16.0835 25.4066 14.887 24.1943 14.6568ZM21.4947 26.2438C21.3233 27.8928 19.9987 29.1811 18.3514 29.3008C16.7042 29.4205 15.2085 28.3371 14.8024 26.73C14.3963 25.1229 15.1967 23.4548 16.7016 22.7718L21.7341 20.481C21.811 20.4453 21.901 20.4541 21.9697 20.5039C22.0383 20.5537 22.0748 20.6369 22.0652 20.7213L21.4947 26.2438Z" fill="url(#paint1_linear)"/>
<path d="M26.4864 7.57982C23.4302 6.93553 19.9971 7.95821 17.3179 10.3053L15.4995 11.9109C14.3432 12.9335 13.0393 14.0738 12.2599 14.7846C11.6538 15.2959 11.0477 15.7203 10.4568 16.1447C9.40119 16.8488 8.42134 17.661 7.53306 18.5685C5.92482 19.9739 5.16235 22.119 5.52108 24.229C6.11194 28.0231 9.55013 32.1854 13.9306 34.3433C17.45 36.128 21.5532 36.3505 25.2436 34.9569C29.5206 33.3095 32.9303 29.9624 34.6668 25.7068C36.1948 22.2041 35.9096 17.4435 33.8874 13.5727C32.1709 10.2899 29.5426 8.17808 26.4864 7.57982ZM29.0332 26.3613C28.0166 29.2023 25.8849 31.5012 23.1348 32.7224C20.6805 33.8096 17.8859 33.8208 15.4231 32.753C12.4841 31.5514 10.0391 28.9384 9.35658 26.259C8.88756 24.6012 9.24623 22.8181 10.3193 21.4729C11.1495 19.9696 12.5706 18.8753 13.8848 18.006C14.739 17.3668 15.6247 16.7711 16.5386 16.2214C17.4707 15.6283 18.6321 14.8868 18.8918 14.6567C20.4199 13.2992 22.5009 12.7542 24.4948 13.1892C25.921 13.4704 27.169 14.5698 28.1062 16.3697C29.7056 19.3815 30.1131 23.8711 29.0332 26.3613Z" fill="url(#paint2_linear)"/>
<path d="M179.696 19.802C179.696 19.858 179.654 20.516 179.57 21.776H163.022C163.358 22.952 164.002 23.862 164.954 24.506C165.934 25.122 167.152 25.43 168.608 25.43C169.7 25.43 170.638 25.276 171.422 24.968C172.234 24.66 173.046 24.156 173.858 23.456L178.058 27.824C175.846 30.288 172.612 31.52 168.356 31.52C165.696 31.52 163.358 31.016 161.342 30.008C159.326 29 157.758 27.6 156.638 25.808C155.546 24.016 155 21.986 155 19.718C155 17.478 155.532 15.476 156.596 13.712C157.688 11.92 159.186 10.52 161.09 9.512C162.994 8.504 165.136 8 167.516 8C169.784 8 171.842 8.476 173.69 9.428C175.538 10.352 176.994 11.71 178.058 13.502C179.15 15.266 179.696 17.366 179.696 19.802ZM167.558 13.67C166.326 13.67 165.29 14.02 164.45 14.72C163.638 15.42 163.12 16.372 162.896 17.576H172.22C171.996 16.372 171.464 15.42 170.624 14.72C169.812 14.02 168.79 13.67 167.558 13.67Z" fill="url(#paint3_linear)"/>
<path d="M192.462 8C196.242 8 199.126 8.868 201.114 10.604C203.102 12.312 204.096 14.944 204.096 18.5V31.142H196.662V28.202C195.514 30.414 193.274 31.52 189.942 31.52C188.178 31.52 186.652 31.212 185.364 30.596C184.076 29.98 183.096 29.154 182.424 28.118C181.78 27.054 181.458 25.85 181.458 24.506C181.458 22.35 182.284 20.684 183.936 19.508C185.588 18.304 188.136 17.702 191.58 17.702H196.116C195.976 15.294 194.366 14.09 191.286 14.09C190.194 14.09 189.088 14.272 187.968 14.636C186.848 14.972 185.896 15.448 185.112 16.064L182.424 10.646C183.684 9.806 185.21 9.162 187.002 8.714C188.822 8.238 190.642 8 192.462 8ZM192.168 26.48C193.092 26.48 193.904 26.256 194.604 25.808C195.304 25.36 195.808 24.702 196.116 23.834V21.86H192.672C190.348 21.86 189.186 22.63 189.186 24.17C189.186 24.87 189.452 25.43 189.984 25.85C190.516 26.27 191.244 26.48 192.168 26.48Z" fill="url(#paint4_linear)"/>
<path d="M217.407 31.52C215.503 31.52 213.627 31.31 211.779 30.89C209.931 30.442 208.447 29.868 207.327 29.168L209.721 23.708C210.757 24.352 211.989 24.87 213.417 25.262C214.845 25.626 216.259 25.808 217.659 25.808C218.947 25.808 219.857 25.682 220.389 25.43C220.949 25.15 221.229 24.758 221.229 24.254C221.229 23.75 220.893 23.4 220.221 23.204C219.577 22.98 218.541 22.77 217.113 22.574C215.293 22.35 213.739 22.056 212.451 21.692C211.191 21.328 210.099 20.656 209.175 19.676C208.251 18.696 207.789 17.324 207.789 15.56C207.789 14.104 208.223 12.816 209.091 11.696C209.959 10.548 211.219 9.652 212.871 9.008C214.551 8.336 216.553 8 218.877 8C220.529 8 222.167 8.168 223.791 8.504C225.415 8.84 226.773 9.316 227.865 9.932L225.471 15.35C223.455 14.23 221.271 13.67 218.919 13.67C217.659 13.67 216.735 13.824 216.147 14.132C215.559 14.412 215.265 14.79 215.265 15.266C215.265 15.798 215.587 16.176 216.231 16.4C216.875 16.596 217.939 16.806 219.423 17.03C221.299 17.31 222.853 17.632 224.085 17.996C225.317 18.36 226.381 19.032 227.277 20.012C228.201 20.964 228.663 22.308 228.663 24.044C228.663 25.472 228.229 26.76 227.361 27.908C226.493 29.028 225.205 29.91 223.497 30.554C221.817 31.198 219.787 31.52 217.407 31.52Z" fill="url(#paint5_linear)"/>
<path d="M255.674 8.378L245.846 32.066C244.698 34.866 243.298 36.826 241.646 37.946C239.994 39.094 237.978 39.668 235.598 39.668C234.394 39.668 233.176 39.472 231.944 39.08C230.74 38.716 229.76 38.226 229.004 37.61L231.776 32.024C232.224 32.444 232.756 32.766 233.372 32.99C234.016 33.242 234.66 33.368 235.304 33.368C236.06 33.368 236.676 33.214 237.152 32.906C237.656 32.598 238.076 32.108 238.412 31.436L228.668 8.378H236.858L242.444 22.28L248.072 8.378H255.674Z" fill="url(#paint6_linear)"/>
<path d="M66.322 8.022C68.394 8.022 70.27 8.512 71.95 9.492C73.658 10.444 75.002 11.816 75.982 13.608C76.99 15.372 77.494 17.43 77.494 19.782C77.494 22.134 76.99 24.206 75.982 25.998C75.002 27.762 73.658 29.134 71.95 30.114C70.27 31.066 68.394 31.542 66.322 31.542C63.662 31.542 61.548 30.744 59.98 29.148V39.312H52V8.4H59.602V10.668C61.086 8.904 63.326 8.022 66.322 8.022ZM64.642 25.2C66.042 25.2 67.19 24.724 68.086 23.772C68.982 22.792 69.43 21.462 69.43 19.782C69.43 18.102 68.982 16.786 68.086 15.834C67.19 14.854 66.042 14.364 64.642 14.364C63.242 14.364 62.094 14.854 61.198 15.834C60.302 16.786 59.854 18.102 59.854 19.782C59.854 21.462 60.302 22.792 61.198 23.772C62.094 24.724 63.242 25.2 64.642 25.2Z" fill="url(#paint7_linear)"/>
<path d="M88.8051 11.13C89.6171 10.094 90.6671 9.324 91.9551 8.82C93.2711 8.288 94.7691 8.022 96.4491 8.022V15.204C95.7211 15.12 95.1191 15.078 94.6431 15.078C92.9351 15.078 91.5911 15.54 90.6111 16.464C89.6591 17.388 89.1831 18.802 89.1831 20.706V31.164H81.2031V8.4H88.8051V11.13Z" fill="url(#paint8_linear)"/>
<path d="M110.961 31.542C108.525 31.542 106.327 31.038 104.367 30.03C102.407 29.022 100.867 27.622 99.7471 25.83C98.6551 24.038 98.1091 22.008 98.1091 19.74C98.1091 17.5 98.6551 15.484 99.7471 13.692C100.867 11.9 102.393 10.514 104.325 9.534C106.285 8.526 108.497 8.022 110.961 8.022C113.425 8.022 115.637 8.526 117.597 9.534C119.557 10.514 121.083 11.9 122.175 13.692C123.267 15.456 123.813 17.472 123.813 19.74C123.813 22.008 123.267 24.038 122.175 25.83C121.083 27.622 119.557 29.022 117.597 30.03C115.637 31.038 113.425 31.542 110.961 31.542ZM110.961 25.2C112.361 25.2 113.509 24.724 114.405 23.772C115.301 22.792 115.749 21.448 115.749 19.74C115.749 18.06 115.301 16.744 114.405 15.792C113.509 14.84 112.361 14.364 110.961 14.364C109.561 14.364 108.413 14.84 107.517 15.792C106.621 16.744 106.173 18.06 106.173 19.74C106.173 21.448 106.621 22.792 107.517 23.772C108.413 24.724 109.561 25.2 110.961 25.2Z" fill="url(#paint9_linear)"/>
<path d="M151.702 0V31.164H144.1V28.896C142.616 30.66 140.39 31.542 137.422 31.542C135.35 31.542 133.46 31.066 131.752 30.114C130.044 29.134 128.686 27.748 127.678 25.956C126.698 24.164 126.208 22.092 126.208 19.74C126.208 17.388 126.698 15.33 127.678 13.566C128.686 11.774 130.044 10.402 131.752 9.45C133.46 8.498 135.35 8.022 137.422 8.022C140.138 8.022 142.238 8.806 143.722 10.374V0H151.702ZM139.102 25.2C140.474 25.2 141.608 24.724 142.504 23.772C143.4 22.792 143.848 21.448 143.848 19.74C143.848 18.06 143.4 16.744 142.504 15.792C141.636 14.84 140.502 14.364 139.102 14.364C137.702 14.364 136.554 14.84 135.658 15.792C134.762 16.744 134.314 18.06 134.314 19.74C134.314 21.448 134.762 22.792 135.658 23.772C136.554 24.724 137.702 25.2 139.102 25.2Z" fill="url(#paint10_linear)"/>
<defs>
<linearGradient id="paint0_linear" x1="21.7293" y1="0" x2="21.7293" y2="40" gradientUnits="userSpaceOnUse">
<stop stop-color="#FF4081"/>
<stop offset="1" stop-color="#FF4057"/>
</linearGradient>
<linearGradient id="paint1_linear" x1="19.3708" y1="14.5417" x2="19.3708" y2="32.0073" gradientUnits="userSpaceOnUse">
<stop stop-color="#FF4081"/>
<stop offset="1" stop-color="#FF4057"/>
</linearGradient>
<linearGradient id="paint2_linear" x1="20.5361" y1="7.3905" x2="20.5361" y2="35.8626" gradientUnits="userSpaceOnUse">
<stop stop-color="#FF4081"/>
<stop offset="1" stop-color="#FF4057"/>
</linearGradient>
<linearGradient id="paint3_linear" x1="157.948" y1="14.1056" x2="250.807" y2="43.483" gradientUnits="userSpaceOnUse">
<stop stop-color="#FF407E"/>
<stop offset="1" stop-color="#FF4058"/>
</linearGradient>
<linearGradient id="paint4_linear" x1="157.948" y1="14.1056" x2="250.807" y2="43.483" gradientUnits="userSpaceOnUse">
<stop stop-color="#FF407E"/>
<stop offset="1" stop-color="#FF4058"/>
</linearGradient>
<linearGradient id="paint5_linear" x1="157.948" y1="14.1056" x2="250.807" y2="43.483" gradientUnits="userSpaceOnUse">
<stop stop-color="#FF407E"/>
<stop offset="1" stop-color="#FF4058"/>
</linearGradient>
<linearGradient id="paint6_linear" x1="157.948" y1="14.1056" x2="250.807" y2="43.483" gradientUnits="userSpaceOnUse">
<stop stop-color="#FF407E"/>
<stop offset="1" stop-color="#FF4058"/>
</linearGradient>
<linearGradient id="paint7_linear" x1="54.9196" y1="7.57933" x2="150.028" y2="31.5837" gradientUnits="userSpaceOnUse">
<stop/>
<stop offset="1"/>
</linearGradient>
<linearGradient id="paint8_linear" x1="54.9196" y1="7.57933" x2="150.028" y2="31.5837" gradientUnits="userSpaceOnUse">
<stop/>
<stop offset="1"/>
</linearGradient>
<linearGradient id="paint9_linear" x1="54.9196" y1="7.57933" x2="150.028" y2="31.5837" gradientUnits="userSpaceOnUse">
<stop/>
<stop offset="1"/>
</linearGradient>
<linearGradient id="paint10_linear" x1="54.9196" y1="7.57933" x2="150.028" y2="31.5837" gradientUnits="userSpaceOnUse">
<stop/>
<stop offset="1"/>
</linearGradient>
</defs>
</svg>